<?xml version="1.0" encoding="utf-8"?>
<!-- Generator: Adobe Illustrator 23.0.3, SVG Export Plug-In . SVG Version: 6.00 Build 0)  -->
<svg version="1.1" id="Layer_1" xmlns="http://www.w3.org/2000/svg" xmlns:xlink="http://www.w3.org/1999/xlink" x="0px" y="0px"
	 viewBox="0 0 60 20" style="enable-background:new 0 0 60 20;" xml:space="preserve">
<style type="text/css">
	.st0{fill:#1DB954;}
</style>
<g>
	<path class="st0" d="M10.16,11.8h-2.6l-0.35,1.1H5.47l2.38-7h2.04l2.38,7h-1.75L10.16,11.8z M9.68,10.3L8.86,7.73L8.04,10.3H9.68z"
		/>
	<path class="st0" d="M12.82,5.6h1.5v7.3h-1.5V5.6z"/>
	<path class="st0" d="M20.79,10.4c0,1.49-1.08,2.64-2.39,2.64c-0.67,0-1.16-0.23-1.49-0.61v0.47h-1.5v-7h1.5v2.47
		c0.33-0.38,0.82-0.61,1.49-0.61C19.71,7.76,20.79,8.91,20.79,10.4z M19.29,10.4c0-0.75-0.5-1.22-1.19-1.22s-1.19,0.47-1.19,1.22
		c0,0.75,0.5,1.22,1.19,1.22S19.29,11.15,19.29,10.4z"/>
	<path class="st0" d="M26.37,7.9v5h-1.5v-0.47c-0.27,0.37-0.77,0.61-1.43,0.61c-1.01,0-1.87-0.72-1.87-2.07V7.9h1.5v2.85
		c0,0.62,0.39,0.91,0.87,0.91c0.55,0,0.93-0.32,0.93-1.03V7.9H26.37z"/>
	<path class="st0" d="M34.97,9.83v3.07h-1.5V9.96c0-0.5-0.24-0.82-0.72-0.82c-0.5,0-0.78,0.35-0.78,0.94v2.82h-1.5V9.96
		c0-0.5-0.24-0.82-0.72-0.82c-0.5,0-0.78,0.35-0.78,0.94v2.82h-1.5v-5h1.5v0.46c0.23-0.34,0.67-0.6,1.34-0.6
		c0.59,0,1.03,0.24,1.31,0.66c0.28-0.4,0.74-0.66,1.45-0.66C34.22,7.76,34.97,8.58,34.97,9.83z"/>
	<path class="st0" d="M40.15,5.9v7h-1.6v-7H40.15z"/>
	<path class="st0" d="M47.55,9.4c0,1.98-1.47,3.5-3.4,3.5h-2.8v-7h2.8C46.08,5.9,47.55,7.42,47.55,9.4z M46.01,9.4
		c0-1.2-0.76-1.96-1.86-1.96h-1.2v3.92h1.2C45.25,11.36,46.01,10.6,46.01,9.4z"/>
	<path class="st0" d="M49.4,8.85h-1.2l0.4-2.95h1.6L49.4,8.85z"/>
	<path class="st0" d="M54.28,11.4c0,1.15-1,1.64-2.08,1.64c-1,0-1.76-0.38-2.15-1.19l1.3-0.74c0.13,0.38,0.41,0.59,0.85,0.59
		c0.36,0,0.54-0.11,0.54-0.31c0-0.55-2.46-0.26-2.46-1.99c0-1.09,0.92-1.64,1.96-1.64c0.81,0,1.53,0.36,1.95,1.07l-1.28,0.69
		c-0.14-0.26-0.34-0.44-0.67-0.44c-0.26,0-0.42,0.1-0.42,0.28C51.82,9.93,54.28,9.55,54.28,11.4z"/>
</g>
<g>
</g>
<g>
</g>
<g>
</g>
<g>
</g>
<g>
</g>
<g>
</g>
<g>
</g>
<g>
</g>
<g>
</g>
<g>
</g>
<g>
</g>
<g>
</g>
<g>
</g>
<g>
</g>
<g>
</g>
</svg>
