<?xml version="1.0" encoding="utf-8"?>
<!-- Generator: Adobe Illustrator 23.0.3, SVG Export Plug-In . SVG Version: 6.00 Build 0)  -->
<svg version="1.1" id="Layer_1" xmlns="http://www.w3.org/2000/svg" xmlns:xlink="http://www.w3.org/1999/xlink" x="0px" y="0px"
	 viewBox="0 0 60 20" style="enable-background:new 0 0 60 20;" xml:space="preserve">
<style type="text/css">
	.st0{fill:#1DB954;}
</style>
<g>
	<path class="st0" d="M9.96,5.9v7h-1.6v-2.78h-2.2v2.78h-1.6v-7h1.6v2.68h2.2V5.9H9.96z"/>
	<path class="st0" d="M13.65,11.7c0.41,0,0.76-0.16,0.96-0.38l1.2,0.69c-0.49,0.68-1.23,1.03-2.18,1.03c-1.71,0-2.77-1.15-2.77-2.64
		s1.08-2.64,2.66-2.64c1.46,0,2.54,1.13,2.54,2.64c0,0.21-0.02,0.41-0.06,0.6h-3.55C12.64,11.52,13.1,11.7,13.65,11.7z M14.57,9.88
		c-0.16-0.58-0.61-0.79-1.06-0.79c-0.57,0-0.95,0.28-1.09,0.79H14.57z"/>
	<path class="st0" d="M16.92,5.6h1.5v7.3h-1.5V5.6z"/>
	<path class="st0" d="M24.89,10.4c0,1.49-1.08,2.64-2.39,2.64c-0.67,0-1.16-0.23-1.49-0.61v2.47h-1.5v-7h1.5v0.47
		c0.33-0.38,0.82-0.61,1.49-0.61C23.81,7.76,24.89,8.91,24.89,10.4z M23.39,10.4c0-0.75-0.5-1.22-1.19-1.22s-1.19,0.47-1.19,1.22
		c0,0.75,0.5,1.22,1.19,1.22S23.39,11.15,23.39,10.4z"/>
	<path class="st0" d="M35.22,9.6c0,2.14-1.49,3.44-3.45,3.44c-2.2,0-3.78-1.62-3.78-3.63c0-2.03,1.61-3.65,3.67-3.65
		c1.34,0,2.47,0.66,3.06,1.6l-1.36,0.78c-0.29-0.46-0.92-0.82-1.71-0.82c-1.18,0-2.06,0.87-2.06,2.1c0,1.19,0.84,2.06,2.2,2.06
		c0.93,0,1.54-0.41,1.79-1.08h-1.87V9h3.51V9.6z"/>
	<path class="st0" d="M40.85,7.9v5h-1.5v-0.47c-0.27,0.37-0.77,0.61-1.43,0.61c-1.01,0-1.87-0.72-1.87-2.07V7.9h1.5v2.85
		c0,0.62,0.39,0.91,0.87,0.91c0.55,0,0.93-0.32,0.93-1.03V7.9H40.85z"/>
	<path class="st0" d="M41.8,6.56c0-0.49,0.41-0.9,0.9-0.9c0.49,0,0.9,0.41,0.9,0.9c0,0.49-0.41,0.9-0.9,0.9
		C42.21,7.46,41.8,7.05,41.8,6.56z M41.96,7.9h1.5v5h-1.5V7.9z"/>
	<path class="st0" d="M49.68,5.9v7h-1.5v-0.47c-0.33,0.38-0.82,0.61-1.49,0.61c-1.31,0-2.39-1.15-2.39-2.64s1.08-2.64,2.39-2.64
		c0.67,0,1.16,0.23,1.49,0.61V5.9H49.68z M48.18,10.4c0-0.75-0.5-1.22-1.19-1.22S45.8,9.65,45.8,10.4c0,0.75,0.5,1.22,1.19,1.22
		S48.18,11.15,48.18,10.4z"/>
	<path class="st0" d="M53.32,11.7c0.41,0,0.76-0.16,0.96-0.38l1.2,0.69c-0.49,0.68-1.23,1.03-2.18,1.03c-1.71,0-2.77-1.15-2.77-2.64
		s1.08-2.64,2.66-2.64c1.46,0,2.54,1.13,2.54,2.64c0,0.21-0.02,0.41-0.06,0.6h-3.55C52.31,11.52,52.77,11.7,53.32,11.7z M54.24,9.88
		c-0.16-0.58-0.61-0.79-1.06-0.79c-0.57,0-0.95,0.28-1.09,0.79H54.24z"/>
</g>
<g>
</g>
<g>
</g>
<g>
</g>
<g>
</g>
<g>
</g>
<g>
</g>
<g>
</g>
<g>
</g>
<g>
</g>
<g>
</g>
<g>
</g>
<g>
</g>
<g>
</g>
<g>
</g>
<g>
</g>
</svg>
