<?xml version="1.0" encoding="utf-8"?>
<!-- Generator: Adobe Illustrator 23.0.3, SVG Export Plug-In . SVG Version: 6.00 Build 0)  -->
<svg version="1.1" id="Layer_1" xmlns="http://www.w3.org/2000/svg" xmlns:xlink="http://www.w3.org/1999/xlink" x="0px" y="0px"
	 viewBox="0 0 60 20" style="enable-background:new 0 0 60 20;" xml:space="preserve">
<style type="text/css">
	.st0{fill:#1DB954;}
</style>
<g>
	<path class="st0" d="M3.5,5.9v7h-1.6v-7H3.5z"/>
	<path class="st0" d="M9.45,9.83v3.07h-1.5v-2.85c0-0.62-0.39-0.91-0.87-0.91c-0.55,0-0.93,0.32-0.93,1.03v2.73h-1.5v-5h1.5v0.47
		C6.42,8,6.92,7.76,7.58,7.76C8.59,7.76,9.45,8.48,9.45,9.83z"/>
	<path class="st0" d="M12.38,9.34v1.77c0,0.43,0.37,0.47,1.03,0.43v1.36c-1.96,0.2-2.53-0.39-2.53-1.79V9.34h-0.8V7.9h0.8V6.95
		l1.5-0.45v1.4h1.03v1.44H12.38z"/>
	<path class="st0" d="M17.36,7.8v1.7c-0.62-0.1-1.5,0.15-1.5,1.14v2.26h-1.5v-5h1.5v0.89C16.06,8.12,16.73,7.8,17.36,7.8z"/>
	<path class="st0" d="M17.67,10.4c0-1.49,1.18-2.64,2.65-2.64c1.47,0,2.65,1.15,2.65,2.64s-1.18,2.64-2.65,2.64
		C18.84,13.04,17.67,11.89,17.67,10.4z M21.46,10.4c0-0.71-0.5-1.18-1.15-1.18s-1.15,0.47-1.15,1.18c0,0.71,0.5,1.18,1.15,1.18
		S21.46,11.11,21.46,10.4z"/>
	<path class="st0" d="M28.94,5.9v7h-1.5v-0.47c-0.33,0.38-0.82,0.61-1.49,0.61c-1.31,0-2.39-1.15-2.39-2.64s1.08-2.64,2.39-2.64
		c0.67,0,1.16,0.23,1.49,0.61V5.9H28.94z M27.44,10.4c0-0.75-0.5-1.22-1.19-1.22s-1.19,0.47-1.19,1.22c0,0.75,0.5,1.22,1.19,1.22
		S27.44,11.15,27.44,10.4z"/>
	<path class="st0" d="M34.77,7.9v5h-1.5v-0.47c-0.27,0.37-0.77,0.61-1.43,0.61c-1.01,0-1.87-0.72-1.87-2.07V7.9h1.5v2.85
		c0,0.62,0.39,0.91,0.87,0.91c0.55,0,0.93-0.32,0.93-1.03V7.9H34.77z"/>
	<path class="st0" d="M35.63,10.4c0-1.49,1.13-2.64,2.65-2.64c0.97,0,1.83,0.51,2.26,1.28L39.22,9.8c-0.17-0.35-0.53-0.56-0.97-0.56
		c-0.65,0-1.13,0.47-1.13,1.16s0.48,1.16,1.13,1.16c0.44,0,0.81-0.21,0.97-0.56l1.31,0.75c-0.43,0.78-1.28,1.29-2.26,1.29
		C36.75,13.04,35.63,11.89,35.63,10.4z"/>
	<path class="st0" d="M43.03,9.34v1.77c0,0.43,0.37,0.47,1.03,0.43v1.36c-1.96,0.2-2.53-0.39-2.53-1.79V9.34h-0.8V7.9h0.8V6.95
		l1.5-0.45v1.4h1.03v1.44H43.03z"/>
	<path class="st0" d="M44.76,6.56c0-0.49,0.41-0.9,0.9-0.9c0.49,0,0.9,0.41,0.9,0.9c0,0.49-0.41,0.9-0.9,0.9
		C45.17,7.46,44.76,7.05,44.76,6.56z M44.92,7.9h1.5v5h-1.5V7.9z"/>
	<path class="st0" d="M47.26,10.4c0-1.49,1.18-2.64,2.65-2.64c1.47,0,2.65,1.15,2.65,2.64s-1.18,2.64-2.65,2.64
		C48.44,13.04,47.26,11.89,47.26,10.4z M51.06,10.4c0-0.71-0.5-1.18-1.15-1.18s-1.15,0.47-1.15,1.18c0,0.71,0.5,1.18,1.15,1.18
		S51.06,11.11,51.06,10.4z"/>
	<path class="st0" d="M58.21,9.83v3.07h-1.5v-2.85c0-0.62-0.39-0.91-0.87-0.91c-0.55,0-0.93,0.32-0.93,1.03v2.73h-1.5v-5h1.5v0.47
		c0.27-0.37,0.77-0.61,1.43-0.61C57.35,7.76,58.21,8.48,58.21,9.83z"/>
</g>
<g>
</g>
<g>
</g>
<g>
</g>
<g>
</g>
<g>
</g>
<g>
</g>
<g>
</g>
<g>
</g>
<g>
</g>
<g>
</g>
<g>
</g>
<g>
</g>
<g>
</g>
<g>
</g>
<g>
</g>
</svg>
