<?xml version="1.0" encoding="utf-8"?>
<!-- Generator: Adobe Illustrator 23.0.3, SVG Export Plug-In . SVG Version: 6.00 Build 0)  -->
<svg version="1.1" id="Layer_1" xmlns="http://www.w3.org/2000/svg" xmlns:xlink="http://www.w3.org/1999/xlink" x="0px" y="0px"
	 viewBox="0 0 60 20" style="enable-background:new 0 0 60 20;" xml:space="preserve">
<style type="text/css">
	.st0{fill:#1DB954;}
</style>
<g>
	<path class="st0" d="M3.84,11.26c0,1.04-0.9,1.48-1.87,1.48c-0.9,0-1.58-0.34-1.94-1.07L1.21,11c0.12,0.34,0.37,0.53,0.76,0.53
		c0.32,0,0.49-0.1,0.49-0.28c0-0.5-2.21-0.23-2.21-1.79c0-0.98,0.83-1.48,1.76-1.48c0.73,0,1.38,0.32,1.76,0.96L2.61,9.57
		c-0.13-0.23-0.31-0.4-0.6-0.4c-0.23,0-0.38,0.09-0.38,0.25C1.63,9.94,3.84,9.59,3.84,11.26z"/>
	<path class="st0" d="M8.78,8.11v4.5H7.42v-0.42c-0.24,0.33-0.69,0.55-1.29,0.55c-0.91,0-1.68-0.65-1.68-1.86V8.11H5.8v2.57
		c0,0.56,0.35,0.82,0.78,0.82c0.5,0,0.84-0.29,0.84-0.93V8.11H8.78z"/>
	<path class="st0" d="M14.38,8.11v4.28c0,1.51-1.18,2.15-2.38,2.15c-0.94,0-1.72-0.35-2.13-1.09l1.15-0.67
		c0.17,0.32,0.43,0.57,1.03,0.57c0.63,0,1.02-0.32,1.02-0.96v-0.41c-0.3,0.37-0.73,0.58-1.31,0.58c-1.28,0-2.21-1.04-2.21-2.29
		s0.94-2.29,2.21-2.29c0.58,0,1.02,0.22,1.31,0.59V8.11H14.38z M13.07,10.27c0-0.62-0.45-1.04-1.09-1.04
		c-0.64,0-1.09,0.42-1.09,1.04s0.45,1.04,1.09,1.04C12.62,11.31,13.07,10.89,13.07,10.27z"/>
	<path class="st0" d="M19.99,8.11v4.28c0,1.51-1.18,2.15-2.38,2.15c-0.94,0-1.72-0.35-2.13-1.09l1.15-0.67
		c0.17,0.32,0.43,0.57,1.03,0.57c0.63,0,1.02-0.32,1.02-0.96v-0.41c-0.3,0.37-0.73,0.58-1.31,0.58c-1.28,0-2.21-1.04-2.21-2.29
		s0.94-2.29,2.21-2.29c0.58,0,1.02,0.22,1.31,0.59V8.11H19.99z M18.68,10.27c0-0.62-0.45-1.04-1.09-1.04
		c-0.64,0-1.09,0.42-1.09,1.04s0.45,1.04,1.09,1.04C18.23,11.31,18.68,10.89,18.68,10.27z"/>
	<path class="st0" d="M23.26,11.53c0.37,0,0.68-0.14,0.86-0.34l1.08,0.62c-0.44,0.61-1.11,0.93-1.96,0.93
		c-1.54,0-2.49-1.04-2.49-2.38s0.97-2.38,2.39-2.38c1.31,0,2.29,1.02,2.29,2.38c0,0.19-0.02,0.37-0.05,0.54h-3.2
		C22.36,11.37,22.77,11.53,23.26,11.53z M24.09,9.89c-0.14-0.52-0.55-0.71-0.95-0.71c-0.51,0-0.86,0.25-0.98,0.71H24.09z"/>
	<path class="st0" d="M29.51,11.26c0,1.04-0.9,1.48-1.87,1.48c-0.9,0-1.58-0.34-1.94-1.07L26.87,11c0.12,0.34,0.37,0.53,0.77,0.53
		c0.32,0,0.49-0.1,0.49-0.28c0-0.5-2.21-0.23-2.21-1.79c0-0.98,0.83-1.48,1.76-1.48c0.73,0,1.38,0.32,1.75,0.96l-1.15,0.62
		c-0.13-0.23-0.31-0.4-0.6-0.4c-0.23,0-0.38,0.09-0.38,0.25C27.3,9.94,29.51,9.59,29.51,11.26z"/>
	<path class="st0" d="M31.76,9.41V11c0,0.39,0.33,0.42,0.93,0.39v1.22c-1.76,0.18-2.28-0.35-2.28-1.61V9.41h-0.72v-1.3h0.72V7.25
		l1.35-0.41v1.26h0.93v1.3H31.76z"/>
	<path class="st0" d="M33.32,6.9c0-0.44,0.37-0.81,0.81-0.81s0.81,0.37,0.81,0.81s-0.37,0.81-0.81,0.81S33.32,7.34,33.32,6.9z
		 M33.45,8.11h1.35v4.5h-1.35V8.11z"/>
	<path class="st0" d="M35.57,10.36c0-1.34,1.06-2.38,2.39-2.38s2.39,1.04,2.39,2.38s-1.06,2.38-2.39,2.38S35.57,11.7,35.57,10.36z
		 M38.99,10.36c0-0.64-0.45-1.06-1.04-1.06s-1.04,0.42-1.04,1.06c0,0.64,0.45,1.06,1.04,1.06S38.99,11,38.99,10.36z"/>
	<path class="st0" d="M45.42,9.85v2.76h-1.35v-2.57c0-0.56-0.35-0.82-0.78-0.82c-0.5,0-0.84,0.29-0.84,0.93v2.46H41.1v-4.5h1.35
		v0.42c0.24-0.33,0.69-0.55,1.29-0.55C44.65,7.98,45.42,8.63,45.42,9.85z"/>
	<path class="st0" d="M49.84,11.26c0,1.04-0.9,1.48-1.87,1.48c-0.9,0-1.58-0.34-1.93-1.07L47.2,11c0.12,0.34,0.37,0.53,0.76,0.53
		c0.32,0,0.49-0.1,0.49-0.28c0-0.5-2.21-0.23-2.21-1.79c0-0.98,0.83-1.48,1.76-1.48c0.73,0,1.38,0.32,1.76,0.96l-1.15,0.62
		c-0.13-0.23-0.31-0.4-0.6-0.4c-0.23,0-0.38,0.09-0.38,0.25C47.63,9.94,49.84,9.59,49.84,11.26z"/>
	<path class="st0" d="M54.66,10.09h-1.44v1.44h-1.26v-1.44h-1.44V8.83h1.44V7.39h1.26v1.44h1.44V10.09z"/>
	<path class="st0" d="M59.7,10.09h-1.44v1.44H57v-1.44h-1.44V8.83H57V7.39h1.26v1.44h1.44V10.09z"/>
</g>
<g>
</g>
<g>
</g>
<g>
</g>
<g>
</g>
<g>
</g>
<g>
</g>
<g>
</g>
<g>
</g>
<g>
</g>
<g>
</g>
<g>
</g>
<g>
</g>
<g>
</g>
<g>
</g>
<g>
</g>
</svg>
